<svg xmlns="http://www.w3.org/2000/svg" xmlns:xlink="http://www.w3.org/1999/xlink" width="40" zoomAndPan="magnify" viewBox="0 0 30 30.000001" height="40" preserveAspectRatio="xMidYMid meet" version="1.2"><defs><clipPath id="1074a71750"><path d="M 7.179688 0 L 22.804688 0 L 22.804688 29.03125 L 7.179688 29.03125 Z M 7.179688 0 "/></clipPath></defs><g id="89c2bc3374"><g clip-rule="nonzero" clip-path="url(#1074a71750)"><path style=" stroke:none;fill-rule:nonzero;fill:#666b72;fill-opacity:1;" d="M 9.640625 0.40625 C 9.0625 -0.148438 8.144531 -0.132812 7.585938 0.441406 C 7.042969 1.003906 7.042969 1.898438 7.585938 2.460938 L 19.640625 14.515625 L 7.585938 26.570312 C 7.03125 27.148438 7.042969 28.066406 7.621094 28.621094 C 8.183594 29.167969 9.074219 29.167969 9.640625 28.625 L 22.136719 16.128906 C 23.027344 15.238281 23.027344 13.792969 22.136719 12.902344 L 9.640625 0.40625 "/><path style=" stroke:none;fill-rule:nonzero;fill:#666b72;fill-opacity:1;" d="M 9.640625 0.40625 C 9.0625 -0.148438 8.144531 -0.132812 7.585938 0.441406 C 7.042969 1.003906 7.042969 1.898438 7.585938 2.460938 L 19.640625 14.515625 L 7.585938 26.570312 C 7.03125 27.148438 7.042969 28.066406 7.621094 28.621094 C 8.183594 29.167969 9.074219 29.167969 9.640625 28.625 L 22.136719 16.128906 C 23.027344 15.238281 23.027344 13.792969 22.136719 12.902344 L 9.640625 0.40625 "/></g></g></svg>