<svg xmlns="http://www.w3.org/2000/svg" xmlns:xlink="http://www.w3.org/1999/xlink" width="40" zoomAndPan="magnify" viewBox="0 0 30 30.000001" height="40" preserveAspectRatio="xMidYMid meet" version="1.2"><defs><clipPath id="1b7042f8eb"><path d="M 1 0.476562 L 29 0.476562 L 29 28.78125 L 1 28.78125 Z M 1 0.476562 "/></clipPath></defs><g id="fe2518ee0e"><g clip-rule="nonzero" clip-path="url(#1b7042f8eb)"><path style=" stroke:none;fill-rule:nonzero;fill:#666b72;fill-opacity:1;" d="M 18.925781 14.65625 L 28.085938 5.5 C 29.171875 4.414062 29.171875 2.652344 28.085938 1.566406 C 27 0.480469 25.242188 0.480469 24.15625 1.566406 L 14.996094 10.726562 L 5.835938 1.566406 C 4.753906 0.480469 2.992188 0.480469 1.90625 1.566406 C 0.820312 2.652344 0.820312 4.414062 1.90625 5.5 L 11.0625 14.65625 L 1.882812 23.839844 C 0.796875 24.921875 0.796875 26.683594 1.882812 27.769531 C 2.425781 28.3125 3.136719 28.585938 3.847656 28.585938 C 4.558594 28.585938 5.273438 28.3125 5.816406 27.769531 L 14.996094 18.589844 L 24.152344 27.746094 C 24.695312 28.289062 25.40625 28.5625 26.117188 28.5625 C 26.828125 28.5625 27.542969 28.289062 28.085938 27.746094 C 29.171875 26.664062 29.171875 24.902344 28.085938 23.816406 Z M 18.925781 14.65625 "/><path style=" stroke:none;fill-rule:nonzero;fill:#ebf0f1;fill-opacity:1;" d="M 18.925781 14.65625 L 28.085938 5.5 C 29.171875 4.414062 29.171875 2.652344 28.085938 1.566406 C 27 0.480469 25.242188 0.480469 24.15625 1.566406 L 14.996094 10.726562 L 5.835938 1.566406 C 4.753906 0.480469 2.992188 0.480469 1.90625 1.566406 C 0.820312 2.652344 0.820312 4.414062 1.90625 5.5 L 11.0625 14.65625 L 1.882812 23.839844 C 0.796875 24.921875 0.796875 26.683594 1.882812 27.769531 C 2.425781 28.3125 3.136719 28.585938 3.847656 28.585938 C 4.558594 28.585938 5.273438 28.3125 5.816406 27.769531 L 14.996094 18.589844 L 24.152344 27.746094 C 24.695312 28.289062 25.40625 28.5625 26.117188 28.5625 C 26.828125 28.5625 27.542969 28.289062 28.085938 27.746094 C 29.171875 26.664062 29.171875 24.902344 28.085938 23.816406 Z M 18.925781 14.65625 "/></g></g></svg>