<svg xmlns="http://www.w3.org/2000/svg" xmlns:xlink="http://www.w3.org/1999/xlink" width="40" zoomAndPan="magnify" viewBox="0 0 30 30.000001" height="40" preserveAspectRatio="xMidYMid meet" version="1.2"><defs><clipPath id="81d5896f86"><path d="M 0.484375 0 L 29.515625 0 L 29.515625 29.03125 L 0.484375 29.03125 Z M 0.484375 0 "/></clipPath></defs><g id="94b01d148e"><g clip-rule="nonzero" clip-path="url(#81d5896f86)"><path style=" stroke:none;fill-rule:nonzero;fill:#666b72;fill-opacity:1;" d="M 15 0 C 14.046875 0 13.101562 0.09375 12.167969 0.277344 C 11.234375 0.464844 10.324219 0.738281 9.445312 1.105469 C 8.5625 1.46875 7.726562 1.917969 6.933594 2.445312 C 6.144531 2.976562 5.410156 3.578125 4.734375 4.25 C 4.0625 4.925781 3.460938 5.660156 2.929688 6.453125 C 2.402344 7.242188 1.953125 8.082031 1.589844 8.960938 C 1.222656 9.839844 0.949219 10.75 0.761719 11.683594 C 0.578125 12.617188 0.484375 13.5625 0.484375 14.515625 C 0.484375 15.46875 0.578125 16.414062 0.761719 17.347656 C 0.949219 18.28125 1.222656 19.191406 1.589844 20.070312 C 1.953125 20.953125 2.402344 21.789062 2.929688 22.582031 C 3.460938 23.375 4.0625 24.105469 4.734375 24.78125 C 5.410156 25.453125 6.144531 26.054688 6.933594 26.585938 C 7.726562 27.117188 8.5625 27.5625 9.445312 27.925781 C 10.324219 28.292969 11.234375 28.566406 12.167969 28.753906 C 13.101562 28.9375 14.046875 29.03125 15 29.03125 C 15.953125 29.03125 16.898438 28.9375 17.832031 28.753906 C 18.765625 28.566406 19.675781 28.292969 20.554688 27.925781 C 21.4375 27.5625 22.273438 27.117188 23.066406 26.585938 C 23.855469 26.054688 24.589844 25.453125 25.265625 24.78125 C 25.9375 24.105469 26.539062 23.375 27.070312 22.582031 C 27.597656 21.789062 28.046875 20.953125 28.410156 20.070312 C 28.777344 19.191406 29.050781 18.28125 29.238281 17.347656 C 29.421875 16.414062 29.515625 15.46875 29.515625 14.515625 C 29.515625 13.5625 29.421875 12.621094 29.234375 11.683594 C 29.046875 10.75 28.773438 9.84375 28.40625 8.964844 C 28.042969 8.082031 27.59375 7.246094 27.066406 6.453125 C 26.535156 5.660156 25.933594 4.929688 25.261719 4.253906 C 24.585938 3.582031 23.855469 2.980469 23.0625 2.449219 C 22.269531 1.921875 21.433594 1.472656 20.554688 1.109375 C 19.671875 0.742188 18.765625 0.46875 17.832031 0.28125 C 16.898438 0.09375 15.953125 0 15 0 Z M 15.023438 22.984375 C 14.863281 22.984375 14.710938 22.953125 14.5625 22.894531 C 14.414062 22.832031 14.28125 22.746094 14.167969 22.632812 C 14.054688 22.519531 13.964844 22.390625 13.902344 22.242188 C 13.839844 22.09375 13.808594 21.941406 13.808594 21.78125 C 13.808594 21.621094 13.835938 21.464844 13.898438 21.316406 C 13.957031 21.167969 14.046875 21.035156 14.160156 20.921875 C 14.269531 20.808594 14.402344 20.722656 14.550781 20.660156 C 14.699219 20.597656 14.851562 20.566406 15.011719 20.566406 L 15.023438 20.566406 C 15.183594 20.566406 15.339844 20.59375 15.488281 20.65625 C 15.636719 20.71875 15.765625 20.804688 15.878906 20.917969 C 15.992188 21.03125 16.082031 21.164062 16.140625 21.3125 C 16.203125 21.460938 16.234375 21.613281 16.234375 21.773438 C 16.234375 21.933594 16.203125 22.089844 16.140625 22.238281 C 16.082031 22.386719 15.992188 22.515625 15.878906 22.628906 C 15.765625 22.742188 15.636719 22.832031 15.488281 22.890625 C 15.339844 22.953125 15.183594 22.984375 15.023438 22.984375 Z M 17.335938 15.128906 C 17.003906 15.285156 16.738281 15.519531 16.539062 15.824219 C 16.335938 16.128906 16.226562 16.464844 16.210938 16.832031 C 16.210938 16.992188 16.179688 17.152344 16.121094 17.300781 C 16.058594 17.453125 15.972656 17.589844 15.859375 17.707031 C 15.746094 17.824219 15.617188 17.917969 15.46875 17.984375 C 15.320312 18.050781 15.164062 18.085938 15 18.09375 C 14.84375 18.097656 14.691406 18.074219 14.542969 18.019531 C 14.394531 17.960938 14.265625 17.878906 14.152344 17.769531 C 14.035156 17.660156 13.949219 17.535156 13.886719 17.390625 C 13.824219 17.246094 13.792969 17.09375 13.789062 16.933594 C 13.789062 16.109375 14 15.34375 14.425781 14.636719 C 14.855469 13.929688 15.433594 13.386719 16.167969 13.007812 C 16.625 12.753906 16.964844 12.390625 17.1875 11.917969 C 17.410156 11.445312 17.472656 10.953125 17.375 10.4375 C 17.28125 9.949219 17.054688 9.527344 16.703125 9.175781 C 16.351562 8.824219 15.929688 8.601562 15.441406 8.507812 C 15.265625 8.476562 15.089844 8.460938 14.914062 8.46875 C 14.734375 8.476562 14.558594 8.5 14.386719 8.546875 C 14.21875 8.589844 14.050781 8.652344 13.894531 8.734375 C 13.734375 8.816406 13.589844 8.914062 13.453125 9.027344 C 13.316406 9.140625 13.195312 9.265625 13.085938 9.40625 C 12.976562 9.546875 12.882812 9.699219 12.808594 9.859375 C 12.734375 10.019531 12.675781 10.1875 12.636719 10.359375 C 12.601562 10.535156 12.582031 10.710938 12.582031 10.886719 C 12.582031 11.046875 12.550781 11.203125 12.488281 11.351562 C 12.425781 11.5 12.339844 11.628906 12.226562 11.742188 C 12.113281 11.855469 11.980469 11.941406 11.832031 12.003906 C 11.6875 12.066406 11.53125 12.097656 11.371094 12.097656 C 11.210938 12.097656 11.054688 12.066406 10.90625 12.003906 C 10.761719 11.941406 10.628906 11.855469 10.515625 11.742188 C 10.402344 11.628906 10.316406 11.5 10.253906 11.351562 C 10.191406 11.203125 10.160156 11.046875 10.160156 10.886719 C 10.160156 10.316406 10.261719 9.761719 10.457031 9.226562 C 10.652344 8.6875 10.9375 8.203125 11.304688 7.765625 C 11.671875 7.328125 12.105469 6.96875 12.601562 6.6875 C 13.097656 6.402344 13.628906 6.214844 14.191406 6.117188 C 14.757812 6.023438 15.320312 6.027344 15.882812 6.132812 C 16.441406 6.234375 16.96875 6.433594 17.460938 6.722656 C 17.953125 7.015625 18.382812 7.378906 18.742188 7.824219 C 19.105469 8.265625 19.378906 8.753906 19.570312 9.296875 C 19.757812 9.835938 19.847656 10.390625 19.839844 10.960938 C 19.828125 11.535156 19.722656 12.085938 19.519531 12.621094 C 19.3125 13.152344 19.023438 13.636719 18.648438 14.066406 C 18.273438 14.496094 17.835938 14.851562 17.335938 15.128906 Z M 17.335938 15.128906 "/></g></g></svg>