<svg xmlns="http://www.w3.org/2000/svg" xmlns:xlink="http://www.w3.org/1999/xlink" width="40" zoomAndPan="magnify" viewBox="0 0 30 30.000001" height="40" preserveAspectRatio="xMidYMid meet" version="1.2"><defs><clipPath id="aaa7eca80d"><path d="M 0.484375 0 L 29.515625 0 L 29.515625 29.03125 L 0.484375 29.03125 Z M 0.484375 0 "/></clipPath></defs><g id="1882c0ca04"><g clip-rule="nonzero" clip-path="url(#aaa7eca80d)"><path style=" stroke:none;fill-rule:nonzero;fill:#000000;fill-opacity:1;" d="M 15 0 C 6.960938 0 0.484375 6.476562 0.484375 14.515625 C 0.484375 22.554688 6.960938 29.03125 15 29.03125 C 23.039062 29.03125 29.515625 22.554688 29.515625 14.515625 C 29.515625 6.476562 23.039062 0 15 0 Z M 15 1.261719 C 22.363281 1.261719 28.253906 7.152344 28.253906 14.515625 C 28.253906 21.878906 22.363281 27.769531 15 27.769531 C 7.636719 27.769531 1.746094 21.878906 1.746094 14.515625 C 1.746094 7.152344 7.636719 1.261719 15 1.261719 Z M 15 5.679688 C 14.75 5.679688 14.507812 5.726562 14.277344 5.824219 C 14.042969 5.921875 13.839844 6.058594 13.660156 6.234375 C 13.484375 6.414062 13.347656 6.617188 13.25 6.847656 C 13.15625 7.082031 13.105469 7.324219 13.105469 7.574219 C 13.105469 7.824219 13.15625 8.066406 13.25 8.296875 C 13.347656 8.53125 13.484375 8.734375 13.660156 8.914062 C 13.839844 9.089844 14.042969 9.226562 14.277344 9.324219 C 14.507812 9.417969 14.75 9.46875 15 9.46875 C 15.25 9.46875 15.492188 9.417969 15.722656 9.324219 C 15.957031 9.226562 16.160156 9.089844 16.339844 8.914062 C 16.515625 8.734375 16.652344 8.53125 16.75 8.296875 C 16.84375 8.066406 16.894531 7.824219 16.894531 7.574219 C 16.894531 7.324219 16.84375 7.082031 16.75 6.847656 C 16.652344 6.617188 16.515625 6.414062 16.339844 6.234375 C 16.160156 6.058594 15.957031 5.921875 15.722656 5.824219 C 15.492188 5.726562 15.25 5.679688 15 5.679688 Z M 12.476562 11.992188 L 12.476562 13.253906 L 13.738281 13.253906 L 13.738281 21.457031 L 12.476562 21.457031 L 12.476562 22.722656 L 17.523438 22.722656 L 17.523438 21.457031 L 16.261719 21.457031 L 16.261719 11.992188 Z M 12.476562 11.992188 "/><path style=" stroke:none;fill-rule:nonzero;fill:#ebf0f1;fill-opacity:1;" d="M 15 0 C 6.960938 0 0.484375 6.476562 0.484375 14.515625 C 0.484375 22.554688 6.960938 29.03125 15 29.03125 C 23.039062 29.03125 29.515625 22.554688 29.515625 14.515625 C 29.515625 6.476562 23.039062 0 15 0 Z M 15 1.261719 C 22.363281 1.261719 28.253906 7.152344 28.253906 14.515625 C 28.253906 21.878906 22.363281 27.769531 15 27.769531 C 7.636719 27.769531 1.746094 21.878906 1.746094 14.515625 C 1.746094 7.152344 7.636719 1.261719 15 1.261719 Z M 15 5.679688 C 14.75 5.679688 14.507812 5.726562 14.277344 5.824219 C 14.042969 5.921875 13.839844 6.058594 13.660156 6.234375 C 13.484375 6.414062 13.347656 6.617188 13.25 6.847656 C 13.15625 7.082031 13.105469 7.324219 13.105469 7.574219 C 13.105469 7.824219 13.15625 8.066406 13.25 8.296875 C 13.347656 8.53125 13.484375 8.734375 13.660156 8.914062 C 13.839844 9.089844 14.042969 9.226562 14.277344 9.324219 C 14.507812 9.417969 14.75 9.46875 15 9.46875 C 15.25 9.46875 15.492188 9.417969 15.722656 9.324219 C 15.957031 9.226562 16.160156 9.089844 16.339844 8.914062 C 16.515625 8.734375 16.652344 8.53125 16.75 8.296875 C 16.84375 8.066406 16.894531 7.824219 16.894531 7.574219 C 16.894531 7.324219 16.84375 7.082031 16.75 6.847656 C 16.652344 6.617188 16.515625 6.414062 16.339844 6.234375 C 16.160156 6.058594 15.957031 5.921875 15.722656 5.824219 C 15.492188 5.726562 15.25 5.679688 15 5.679688 Z M 12.476562 11.992188 L 12.476562 13.253906 L 13.738281 13.253906 L 13.738281 21.457031 L 12.476562 21.457031 L 12.476562 22.722656 L 17.523438 22.722656 L 17.523438 21.457031 L 16.261719 21.457031 L 16.261719 11.992188 Z M 12.476562 11.992188 "/></g></g></svg>