<svg xmlns="http://www.w3.org/2000/svg" xmlns:xlink="http://www.w3.org/1999/xlink" width="40" zoomAndPan="magnify" viewBox="0 0 30 30.000001" height="40" preserveAspectRatio="xMidYMid meet" version="1.2"><defs><clipPath id="2272727bcb"><path d="M 7.015625 0 L 22.984375 0 L 22.984375 29.03125 L 7.015625 29.03125 Z M 7.015625 0 "/></clipPath></defs><g id="2806dcfcc9"><g clip-rule="nonzero" clip-path="url(#2272727bcb)"><path style=" stroke:none;fill-rule:nonzero;fill:#000000;fill-opacity:1;" d="M 7.066406 28.089844 C 7.066406 27.828125 7.179688 27.589844 7.351562 27.417969 L 20.515625 14.582031 L 7.292969 1.609375 C 7.121094 1.4375 7.011719 1.199219 7.011719 0.933594 C 7.011719 0.414062 7.433594 -0.0078125 7.957031 -0.0078125 C 8.210938 -0.0078125 8.445312 0.0976562 8.613281 0.261719 L 22.535156 13.914062 C 22.976562 14.34375 22.976562 14.816406 22.53125 15.25 L 8.671875 28.765625 C 8.5 28.929688 8.265625 29.03125 8.011719 29.03125 C 7.488281 29.03125 7.066406 28.609375 7.066406 28.089844 Z M 7.066406 28.089844 "/><path style=" stroke:none;fill-rule:nonzero;fill:#666b72;fill-opacity:1;" d="M 7.066406 28.089844 C 7.066406 27.828125 7.179688 27.589844 7.351562 27.417969 L 20.515625 14.582031 L 7.292969 1.609375 C 7.121094 1.4375 7.011719 1.199219 7.011719 0.933594 C 7.011719 0.414062 7.433594 -0.0078125 7.957031 -0.0078125 C 8.210938 -0.0078125 8.445312 0.0976562 8.613281 0.261719 L 22.535156 13.914062 C 22.976562 14.34375 22.976562 14.816406 22.53125 15.25 L 8.671875 28.765625 C 8.5 28.929688 8.265625 29.03125 8.011719 29.03125 C 7.488281 29.03125 7.066406 28.609375 7.066406 28.089844 Z M 7.066406 28.089844 "/></g></g></svg>