<svg xmlns="http://www.w3.org/2000/svg" xmlns:xlink="http://www.w3.org/1999/xlink" width="40" zoomAndPan="magnify" viewBox="0 0 30 30.000001" height="40" preserveAspectRatio="xMidYMid meet" version="1.2"><defs><clipPath id="8844f35fd4"><path d="M 7.191406 0 L 22.816406 0 L 22.816406 29.03125 L 7.191406 29.03125 Z M 7.191406 0 "/></clipPath></defs><g id="d1e163c037"><g clip-rule="nonzero" clip-path="url(#8844f35fd4)"><path style=" stroke:none;fill-rule:nonzero;fill:#ebf0f1;fill-opacity:1;" d="M 20.355469 0.40625 C 20.933594 -0.148438 21.851562 -0.132812 22.410156 0.441406 C 22.953125 1.003906 22.953125 1.898438 22.410156 2.460938 L 10.355469 14.515625 L 22.410156 26.570312 C 22.964844 27.148438 22.949219 28.066406 22.375 28.621094 C 21.8125 29.167969 20.917969 29.167969 20.355469 28.625 L 7.859375 16.128906 C 6.96875 15.238281 6.96875 13.792969 7.859375 12.902344 L 20.355469 0.40625 "/><path style=" stroke:none;fill-rule:nonzero;fill:#ebf0f1;fill-opacity:1;" d="M 20.355469 0.40625 C 20.933594 -0.148438 21.851562 -0.132812 22.410156 0.441406 C 22.953125 1.003906 22.953125 1.898438 22.410156 2.460938 L 10.355469 14.515625 L 22.410156 26.570312 C 22.964844 27.148438 22.949219 28.066406 22.375 28.621094 C 21.8125 29.167969 20.917969 29.167969 20.355469 28.625 L 7.859375 16.128906 C 6.96875 15.238281 6.96875 13.792969 7.859375 12.902344 L 20.355469 0.40625 "/></g></g></svg>