<svg xmlns="http://www.w3.org/2000/svg" xmlns:xlink="http://www.w3.org/1999/xlink" width="40" zoomAndPan="magnify" viewBox="0 0 30 30.000001" height="40" preserveAspectRatio="xMidYMid meet" version="1.2"><defs><clipPath id="a1fd50615a"><path d="M 0.484375 19 L 29.515625 19 L 29.515625 28.304688 L 0.484375 28.304688 Z M 0.484375 19 "/></clipPath><clipPath id="f4c2184710"><path d="M 0.484375 20 L 29.515625 20 L 29.515625 28.921875 L 0.484375 28.921875 Z M 0.484375 20 "/></clipPath><clipPath id="581e7779ee"><path d="M 6 0.617188 L 24 0.617188 L 24 22 L 6 22 Z M 6 0.617188 "/></clipPath></defs><g id="ef452bbc55"><g clip-rule="nonzero" clip-path="url(#a1fd50615a)"><path style=" stroke:none;fill-rule:nonzero;fill:#666b72;fill-opacity:1;" d="M 3.777344 28.226562 L 26.117188 28.226562 C 27.914062 28.226562 29.410156 26.730469 29.410156 24.933594 L 29.410156 21.640625 C 29.410156 20.5 28.453125 19.542969 27.316406 19.542969 C 26.175781 19.542969 25.21875 20.5 25.21875 21.640625 L 25.21875 24.035156 L 4.675781 24.035156 L 4.675781 21.640625 C 4.675781 20.5 3.71875 19.542969 2.582031 19.542969 C 1.441406 19.542969 0.484375 20.5 0.484375 21.640625 L 0.484375 24.933594 C 0.484375 26.730469 1.921875 28.226562 3.777344 28.226562 Z M 3.777344 28.226562 "/></g><path style=" stroke:none;fill-rule:nonzero;fill:#666b72;fill-opacity:1;" d="M 14.917969 0.078125 C 13.78125 0.078125 12.820312 1.035156 12.820312 2.175781 L 12.820312 13.316406 L 10.246094 10.738281 C 9.40625 9.902344 8.089844 9.902344 7.3125 10.738281 C 6.472656 11.578125 6.472656 12.894531 7.3125 13.675781 L 13.480469 19.84375 C 13.660156 20.023438 13.898438 20.203125 14.140625 20.261719 C 14.378906 20.382812 14.617188 20.441406 14.917969 20.441406 C 15.21875 20.441406 15.457031 20.382812 15.695312 20.261719 C 15.9375 20.140625 16.175781 20.023438 16.355469 19.84375 L 22.523438 13.675781 C 23.363281 12.835938 23.363281 11.519531 22.523438 10.679688 C 21.6875 9.839844 20.367188 9.839844 19.589844 10.679688 L 17.015625 13.253906 L 17.015625 2.175781 C 17.015625 1.035156 16.054688 0.078125 14.917969 0.078125 Z M 14.917969 0.078125 "/><g clip-rule="nonzero" clip-path="url(#f4c2184710)"><path style=" stroke:none;fill-rule:nonzero;fill:#666b72;fill-opacity:1;" d="M 3.777344 28.84375 L 26.117188 28.84375 C 27.914062 28.84375 29.410156 27.347656 29.410156 25.550781 L 29.410156 22.257812 C 29.410156 21.117188 28.453125 20.160156 27.316406 20.160156 C 26.175781 20.160156 25.21875 21.117188 25.21875 22.257812 L 25.21875 24.652344 L 4.675781 24.652344 L 4.675781 22.257812 C 4.675781 21.117188 3.71875 20.160156 2.582031 20.160156 C 1.441406 20.160156 0.484375 21.117188 0.484375 22.257812 L 0.484375 25.550781 C 0.484375 27.347656 1.921875 28.84375 3.777344 28.84375 Z M 3.777344 28.84375 "/></g><g clip-rule="nonzero" clip-path="url(#581e7779ee)"><path style=" stroke:none;fill-rule:nonzero;fill:#666b72;fill-opacity:1;" d="M 14.917969 0.695312 C 13.78125 0.695312 12.820312 1.652344 12.820312 2.792969 L 12.820312 13.933594 L 10.246094 11.355469 C 9.40625 10.519531 8.089844 10.519531 7.3125 11.355469 C 6.472656 12.195312 6.472656 13.511719 7.3125 14.292969 L 13.480469 20.460938 C 13.660156 20.640625 13.898438 20.820312 14.140625 20.878906 C 14.378906 21 14.617188 21.058594 14.917969 21.058594 C 15.21875 21.058594 15.457031 21 15.695312 20.878906 C 15.9375 20.757812 16.175781 20.640625 16.355469 20.460938 L 22.523438 14.292969 C 23.363281 13.453125 23.363281 12.136719 22.523438 11.296875 C 21.6875 10.457031 20.367188 10.457031 19.589844 11.296875 L 17.015625 13.871094 L 17.015625 2.792969 C 17.015625 1.652344 16.054688 0.695312 14.917969 0.695312 Z M 14.917969 0.695312 "/></g></g></svg>