<svg xmlns="http://www.w3.org/2000/svg" xmlns:xlink="http://www.w3.org/1999/xlink" width="40" zoomAndPan="magnify" viewBox="0 0 30 30.000001" height="40" preserveAspectRatio="xMidYMid meet" version="1.2"><defs><clipPath id="1049f48ce7"><path d="M 0.484375 19 L 29.515625 19 L 29.515625 29 L 0.484375 29 Z M 0.484375 19 "/></clipPath><clipPath id="29b81c0277"><path d="M 6 0.308594 L 24 0.308594 L 24 21 L 6 21 Z M 6 0.308594 "/></clipPath><clipPath id="797201ee74"><path d="M 0.484375 19 L 29.515625 19 L 29.515625 29 L 0.484375 29 Z M 0.484375 19 "/></clipPath><clipPath id="3077bbdaba"><path d="M 6 0.308594 L 24 0.308594 L 24 21 L 6 21 Z M 6 0.308594 "/></clipPath></defs><g id="8af082fd86"><g clip-rule="nonzero" clip-path="url(#1049f48ce7)"><path style=" stroke:none;fill-rule:nonzero;fill:#ebf0f1;fill-opacity:1;" d="M 3.789062 28.640625 L 26.210938 28.640625 C 28.011719 28.640625 29.515625 27.140625 29.515625 25.335938 L 29.515625 22.03125 C 29.515625 20.886719 28.554688 19.925781 27.414062 19.925781 C 26.269531 19.925781 25.308594 20.886719 25.308594 22.03125 L 25.308594 24.433594 L 4.691406 24.433594 L 4.691406 22.03125 C 4.691406 20.886719 3.730469 19.925781 2.585938 19.925781 C 1.445312 19.925781 0.484375 20.886719 0.484375 22.03125 L 0.484375 25.335938 C 0.484375 27.140625 1.925781 28.640625 3.789062 28.640625 Z M 3.789062 28.640625 "/></g><g clip-rule="nonzero" clip-path="url(#29b81c0277)"><path style=" stroke:none;fill-rule:nonzero;fill:#ebf0f1;fill-opacity:1;" d="M 14.96875 0.390625 C 13.828125 0.390625 12.867188 1.351562 12.867188 2.496094 L 12.867188 13.675781 L 10.28125 11.089844 C 9.441406 10.25 8.117188 10.25 7.335938 11.089844 C 6.496094 11.929688 6.496094 13.253906 7.335938 14.035156 L 13.527344 20.226562 C 13.707031 20.40625 13.949219 20.585938 14.1875 20.648438 C 14.429688 20.765625 14.667969 20.828125 14.96875 20.828125 C 15.269531 20.828125 15.511719 20.765625 15.75 20.648438 C 15.992188 20.527344 16.230469 20.40625 16.414062 20.226562 L 22.605469 14.035156 C 23.445312 13.195312 23.445312 11.871094 22.605469 11.03125 C 21.761719 10.1875 20.441406 10.1875 19.660156 11.03125 L 17.074219 13.613281 L 17.074219 2.496094 C 17.074219 1.351562 16.113281 0.390625 14.96875 0.390625 Z M 14.96875 0.390625 "/></g><g clip-rule="nonzero" clip-path="url(#797201ee74)"><path style=" stroke:none;fill-rule:nonzero;fill:#ebf0f1;fill-opacity:1;" d="M 3.789062 28.640625 L 26.210938 28.640625 C 28.011719 28.640625 29.515625 27.140625 29.515625 25.335938 L 29.515625 22.03125 C 29.515625 20.886719 28.554688 19.925781 27.414062 19.925781 C 26.269531 19.925781 25.308594 20.886719 25.308594 22.03125 L 25.308594 24.433594 L 4.691406 24.433594 L 4.691406 22.03125 C 4.691406 20.886719 3.730469 19.925781 2.585938 19.925781 C 1.445312 19.925781 0.484375 20.886719 0.484375 22.03125 L 0.484375 25.335938 C 0.484375 27.140625 1.925781 28.640625 3.789062 28.640625 Z M 3.789062 28.640625 "/></g><g clip-rule="nonzero" clip-path="url(#3077bbdaba)"><path style=" stroke:none;fill-rule:nonzero;fill:#ebf0f1;fill-opacity:1;" d="M 14.96875 0.390625 C 13.828125 0.390625 12.867188 1.351562 12.867188 2.496094 L 12.867188 13.675781 L 10.28125 11.089844 C 9.441406 10.25 8.117188 10.25 7.335938 11.089844 C 6.496094 11.929688 6.496094 13.253906 7.335938 14.035156 L 13.527344 20.226562 C 13.707031 20.40625 13.949219 20.585938 14.1875 20.648438 C 14.429688 20.765625 14.667969 20.828125 14.96875 20.828125 C 15.269531 20.828125 15.511719 20.765625 15.75 20.648438 C 15.992188 20.527344 16.230469 20.40625 16.414062 20.226562 L 22.605469 14.035156 C 23.445312 13.195312 23.445312 11.871094 22.605469 11.03125 C 21.761719 10.1875 20.441406 10.1875 19.660156 11.03125 L 17.074219 13.613281 L 17.074219 2.496094 C 17.074219 1.351562 16.113281 0.390625 14.96875 0.390625 Z M 14.96875 0.390625 "/></g></g></svg>