<svg xmlns="http://www.w3.org/2000/svg" xmlns:xlink="http://www.w3.org/1999/xlink" width="40" zoomAndPan="magnify" viewBox="0 0 30 30.000001" height="40" preserveAspectRatio="xMidYMid meet" version="1.2"><defs><clipPath id="c66aa7f554"><path d="M 1 1.003906 L 29 1.003906 L 29 27.859375 L 1 27.859375 Z M 1 1.003906 "/></clipPath></defs><g id="00c11266cf"><g clip-rule="nonzero" clip-path="url(#c66aa7f554)"><path style=" stroke:none;fill-rule:nonzero;fill:#666b72;fill-opacity:1;" d="M 27.242188 15.042969 L 26.105469 15.042969 L 26.105469 26.679688 C 26.097656 26.835938 26.058594 26.988281 25.988281 27.128906 C 25.917969 27.273438 25.824219 27.398438 25.707031 27.503906 C 25.585938 27.609375 25.453125 27.6875 25.304688 27.742188 C 25.15625 27.792969 25 27.816406 24.84375 27.808594 L 18.140625 27.808594 L 18.140625 19.875 C 18.140625 19.648438 18.058594 19.453125 17.898438 19.289062 C 17.734375 19.128906 17.539062 19.046875 17.3125 19.046875 L 12.449219 19.046875 C 12.21875 19.046875 12.023438 19.128906 11.863281 19.289062 C 11.699219 19.453125 11.617188 19.648438 11.621094 19.875 L 11.621094 27.808594 L 4.914062 27.808594 C 4.757812 27.816406 4.605469 27.792969 4.453125 27.742188 C 4.304688 27.691406 4.171875 27.609375 4.054688 27.503906 C 3.9375 27.398438 3.84375 27.277344 3.773438 27.132812 C 3.703125 26.992188 3.664062 26.839844 3.65625 26.683594 L 3.65625 15.042969 L 2.515625 15.042969 C 1.253906 15.042969 0.570312 13.855469 1.398438 13.09375 L 13.867188 1.5625 C 14.023438 1.429688 14.199219 1.328125 14.394531 1.257812 C 14.585938 1.1875 14.789062 1.152344 14.992188 1.152344 C 15.199219 1.152344 15.398438 1.1875 15.59375 1.257812 C 15.785156 1.332031 15.960938 1.433594 16.117188 1.566406 C 20.199219 5.410156 24.285156 9.253906 28.371094 13.097656 C 29.183594 13.867188 28.5 15.042969 27.242188 15.042969 Z M 27.242188 15.042969 "/></g></g></svg>