<svg xmlns="http://www.w3.org/2000/svg" xmlns:xlink="http://www.w3.org/1999/xlink" width="40" zoomAndPan="magnify" viewBox="0 0 30 30.000001" height="40" preserveAspectRatio="xMidYMid meet" version="1.2"><defs><clipPath id="cd46d1015a"><path d="M 2.425781 0 L 27.828125 0 L 27.828125 29.03125 L 2.425781 29.03125 Z M 2.425781 0 "/></clipPath><clipPath id="345c6e0e34"><path d="M 2.425781 0 L 27.828125 0 L 27.828125 29.03125 L 2.425781 29.03125 Z M 2.425781 0 "/></clipPath></defs><g id="cfda50c008"><g clip-rule="nonzero" clip-path="url(#cd46d1015a)"><path style=" stroke:none;fill-rule:nonzero;fill:#eb1b23;fill-opacity:1;" d="M 25.523438 3.144531 L 21.339844 3.144531 L 21.339844 2.546875 C 21.339844 1.144531 20.199219 0.00390625 18.796875 0.00390625 L 11.164062 0.00390625 C 9.761719 0.00390625 8.621094 1.144531 8.621094 2.546875 L 8.621094 3.144531 L 4.4375 3.144531 C 3.339844 3.144531 2.449219 4.035156 2.449219 5.132812 L 2.449219 6.074219 C 2.449219 7.101562 3.230469 7.945312 4.230469 8.050781 L 6.277344 26.019531 C 6.472656 27.734375 7.921875 29.027344 9.648438 29.027344 L 20.3125 29.027344 C 22.039062 29.027344 23.488281 27.734375 23.683594 26.019531 L 25.730469 8.050781 C 26.730469 7.945312 27.511719 7.101562 27.511719 6.074219 L 27.511719 5.132812 C 27.511719 4.035156 26.621094 3.144531 25.523438 3.144531 Z M 9.910156 2.546875 C 9.910156 1.855469 10.472656 1.292969 11.164062 1.292969 L 18.796875 1.292969 C 19.488281 1.292969 20.050781 1.855469 20.050781 2.546875 L 20.050781 3.144531 L 9.910156 3.144531 Z M 22.402344 25.871094 C 22.28125 26.933594 21.382812 27.738281 20.3125 27.738281 L 9.648438 27.738281 C 8.578125 27.738281 7.679688 26.933594 7.558594 25.871094 L 5.53125 8.0625 L 24.433594 8.0625 Z M 26.222656 6.074219 C 26.222656 6.457031 25.910156 6.773438 25.523438 6.773438 L 4.4375 6.773438 C 4.050781 6.773438 3.738281 6.457031 3.738281 6.074219 L 3.738281 5.132812 C 3.738281 4.746094 4.050781 4.433594 4.4375 4.433594 L 25.523438 4.433594 C 25.910156 4.433594 26.222656 4.746094 26.222656 5.132812 Z M 26.222656 6.074219 "/></g><path style=" stroke:none;fill-rule:nonzero;fill:#eb1b23;fill-opacity:1;" d="M 14.980469 24.246094 C 15.335938 24.246094 15.625 23.957031 15.625 23.601562 L 15.625 12.199219 C 15.625 11.84375 15.335938 11.554688 14.980469 11.554688 C 14.625 11.554688 14.335938 11.84375 14.335938 12.199219 L 14.335938 23.601562 C 14.335938 23.957031 14.625 24.246094 14.980469 24.246094 Z M 14.980469 24.246094 "/><path style=" stroke:none;fill-rule:nonzero;fill:#eb1b23;fill-opacity:1;" d="M 18.835938 24.214844 C 18.859375 24.21875 18.878906 24.21875 18.902344 24.21875 C 19.230469 24.21875 19.507812 23.96875 19.542969 23.636719 L 20.648438 12.289062 C 20.679688 11.933594 20.421875 11.617188 20.066406 11.582031 C 19.707031 11.546875 19.398438 11.808594 19.363281 12.164062 L 18.257812 23.511719 C 18.222656 23.863281 18.480469 24.179688 18.835938 24.214844 Z M 18.835938 24.214844 "/><path style=" stroke:none;fill-rule:nonzero;fill:#eb1b23;fill-opacity:1;" d="M 11.058594 24.21875 C 11.082031 24.21875 11.101562 24.21875 11.125 24.214844 C 11.476562 24.179688 11.738281 23.863281 11.703125 23.511719 L 10.597656 12.164062 C 10.5625 11.808594 10.253906 11.546875 9.894531 11.582031 C 9.539062 11.617188 9.277344 11.933594 9.3125 12.289062 L 10.417969 23.636719 C 10.453125 23.96875 10.730469 24.21875 11.058594 24.21875 Z M 11.058594 24.21875 "/><g clip-rule="nonzero" clip-path="url(#345c6e0e34)"><path style=" stroke:none;fill-rule:nonzero;fill:#eb1b23;fill-opacity:1;" d="M 25.523438 3.144531 L 21.339844 3.144531 L 21.339844 2.546875 C 21.339844 1.144531 20.199219 0.00390625 18.796875 0.00390625 L 11.164062 0.00390625 C 9.761719 0.00390625 8.621094 1.144531 8.621094 2.546875 L 8.621094 3.144531 L 4.4375 3.144531 C 3.339844 3.144531 2.449219 4.035156 2.449219 5.132812 L 2.449219 6.074219 C 2.449219 7.101562 3.230469 7.945312 4.230469 8.050781 L 6.277344 26.019531 C 6.472656 27.734375 7.921875 29.027344 9.648438 29.027344 L 20.3125 29.027344 C 22.039062 29.027344 23.488281 27.734375 23.683594 26.019531 L 25.730469 8.050781 C 26.730469 7.945312 27.511719 7.101562 27.511719 6.074219 L 27.511719 5.132812 C 27.511719 4.035156 26.621094 3.144531 25.523438 3.144531 Z M 9.910156 2.546875 C 9.910156 1.855469 10.472656 1.292969 11.164062 1.292969 L 18.796875 1.292969 C 19.488281 1.292969 20.050781 1.855469 20.050781 2.546875 L 20.050781 3.144531 L 9.910156 3.144531 Z M 22.402344 25.871094 C 22.28125 26.933594 21.382812 27.738281 20.3125 27.738281 L 9.648438 27.738281 C 8.578125 27.738281 7.679688 26.933594 7.558594 25.871094 L 5.53125 8.0625 L 24.433594 8.0625 Z M 26.222656 6.074219 C 26.222656 6.457031 25.910156 6.773438 25.523438 6.773438 L 4.4375 6.773438 C 4.050781 6.773438 3.738281 6.457031 3.738281 6.074219 L 3.738281 5.132812 C 3.738281 4.746094 4.050781 4.433594 4.4375 4.433594 L 25.523438 4.433594 C 25.910156 4.433594 26.222656 4.746094 26.222656 5.132812 Z M 26.222656 6.074219 "/></g><path style=" stroke:none;fill-rule:nonzero;fill:#eb1b23;fill-opacity:1;" d="M 14.980469 24.246094 C 15.335938 24.246094 15.625 23.957031 15.625 23.601562 L 15.625 12.199219 C 15.625 11.84375 15.335938 11.554688 14.980469 11.554688 C 14.625 11.554688 14.335938 11.84375 14.335938 12.199219 L 14.335938 23.601562 C 14.335938 23.957031 14.625 24.246094 14.980469 24.246094 Z M 14.980469 24.246094 "/><path style=" stroke:none;fill-rule:nonzero;fill:#eb1b23;fill-opacity:1;" d="M 18.835938 24.214844 C 18.859375 24.21875 18.878906 24.21875 18.902344 24.21875 C 19.230469 24.21875 19.507812 23.96875 19.542969 23.636719 L 20.648438 12.289062 C 20.679688 11.933594 20.421875 11.617188 20.066406 11.582031 C 19.707031 11.546875 19.398438 11.808594 19.363281 12.164062 L 18.257812 23.511719 C 18.222656 23.863281 18.480469 24.179688 18.835938 24.214844 Z M 18.835938 24.214844 "/><path style=" stroke:none;fill-rule:nonzero;fill:#eb1b23;fill-opacity:1;" d="M 11.058594 24.21875 C 11.082031 24.21875 11.101562 24.21875 11.125 24.214844 C 11.476562 24.179688 11.738281 23.863281 11.703125 23.511719 L 10.597656 12.164062 C 10.5625 11.808594 10.253906 11.546875 9.894531 11.582031 C 9.539062 11.617188 9.277344 11.933594 9.3125 12.289062 L 10.417969 23.636719 C 10.453125 23.96875 10.730469 24.21875 11.058594 24.21875 Z M 11.058594 24.21875 "/></g></svg>